# xmcd
#
# Track frame offsets:
#	150
#	14288
#	27928
#	45623
#	61898
#	74930
#	90238
#	104325
#	117683
#	130070
#	149605
#	164323
#	180783
#	194543
#
# Disc length: 2813 seconds
#
# Revision: 3
# Processed by: cddbd v1.5.2PL0 Copyright (c) Steve Scherf et al.
# Submitted via: audiograbber 1.83.01
#
DISCID=c50afb0e
DTITLE=Various Artist - Hot Hits Country Vol. 13
DYEAR=1994
DGENRE=Country
TTITLE0=Daron  Norwood - Cowboys Don't Cry
TTITLE1=David Lee Murphy - Just Once
TTITLE2=Alabama - The Cheap Seats
TTITLE3=Jesse Hunter - By The Way She's Lookin
TTITLE4=Tracy Byrd - Lifestyles Of The Not So Rich and Famous
TTITLE5=Lee Roy Parnell - Take These Chains From My Heart
TTITLE6=Little Texas - Stop On A Dime
TTITLE7=John and Audrey Wiggins - Falling Out Of Love
TTITLE8=Neal McCoy - Wink
TTITLE9=Travis Tritt - Foolish Pride
TTITLE10=Mavericks - Oh What A Thrill
TTITLE11=Mark Collie - It Is No Secret
TTITLE12=David Ball - Thinkin' Problem
TTITLE13=Brooks and Dunn - That Ain't No Way To Go
EXTD=
EXTT0=
EXTT1=
EXTT2=
EXTT3=
EXTT4=
EXTT5=
EXTT6=
EXTT7=
EXTT8=
EXTT9=
EXTT10=
EXTT11=
EXTT12=
EXTT13=
PLAYORDER=
